<svg width="1200" height="1200" viewBox="0 0 1200 1200" fill="none" xmlns="http://www.w3.org/2000/svg">
<g clip-path="url(#clip0)">
<path fill-rule="evenodd" clip-rule="evenodd" d="M638.379 1205.55C752.361 1199.3 843.098 1167.24 918.125 1106.64C939.286 1089.65 972.631 1055.02 988.662 1033.54C1037.88 967.488 1071.54 887.973 1090.3 792.747C1113.55 674.596 1113.55 527.429 1090.3 408.958C1052.31 216.262 952.752 86.8895 799.654 31.4213C740.979 10.0997 678.137 0 603.912 0C414.743 0 274.469 70.217 186.778 208.888C175.235 227.324 152.792 271.249 144.776 291.769C118.004 359.261 101.812 433.646 94.598 521.818C91.552 559.171 92.033 651.992 95.5598 689.345C102.133 761.005 113.355 818.236 131.63 873.705C197.038 1071.21 341.48 1186.47 545.398 1203.95C582.75 1207.16 603.431 1207.48 638.379 1205.55ZM599.904 786.976C631.806 803.327 663.388 811.183 712.924 815.03C728.475 816.152 783.622 814.389 800.455 812.145C853.679 804.931 892.635 788.258 922.613 759.883C955.638 728.782 975.036 686.62 984.174 625.701C987.7 601.654 988.181 523.742 984.975 500.176C975.837 435.73 956.92 391.965 923.896 358.94C885.421 320.465 833.159 301.548 757.01 298.663C711.802 297.06 665.311 302.831 632.608 314.373C553.573 341.947 511.411 402.385 499.708 504.985C496.342 534.002 497.143 603.738 501.151 629.869C513.014 707.621 545.397 759.081 599.904 786.976Z" fill="#2023C9"/>
</g>
<defs>
<clipPath id="clip0">
<rect width="1200" height="1200" fill="white"/>
</clipPath>
</defs>
</svg>
